<svg width="1920" height="599" viewBox="0 0 1920 599" fill="none" xmlns="http://www.w3.org/2000/svg">
<path d="M661.075 492.552C1031.12 341.674 1795.81 339.845 1960.68 337.273L2168.53 1047.15L48.0509 1950.49L-227.181 1304.42C66.4588 1179.33 198.512 681.151 661.075 492.552Z" fill="#13384A" fill-opacity="0.02"/>
<path d="M561.479 319.055C959.308 281.195 1837.76 516.102 1996.37 561.141L1845.22 1284.46L-445.615 1538.54L-523.028 840.571C-205.798 805.386 64.1925 366.381 561.479 319.055Z" fill="#13384A" fill-opacity="0.03"/>
<path d="M1000.66 804.808C1357.59 801.487 1871.33 485.955 2008.29 397.413L1924.12 1935.79H149.832V1250.97C324.148 972.898 554.495 808.958 1000.66 804.808Z" fill="#13384A" fill-opacity="0.03"/>
</svg>
